<svg xmlns="http://www.w3.org/2000/svg"  viewBox="0 0 64 64" width="64px" height="64px"><path fill="#ced9ed" d="M47,57H17c-5.523,0-10-4.478-10-10V17c0-5.523,4.477-10,10-10h30c5.522,0,10,4.477,10,10v30 C57,52.522,52.522,57,47,57z"/><path fill="#acb7d0" d="M57.723,19.511H50V8h0c4.266,0,7.723,3.458,7.723,7.723V19.511z"/><rect width="7.723" height="11.511" x="50" y="20" fill="#85cbf8"/><rect width="7.723" height="11.511" x="50" y="32.745" fill="#f9dd8f"/><path fill="#72caaf" d="M50,56.511L50,56.511L50,45h7.723v3.787C57.723,53.053,54.266,56.511,50,56.511z"/><path fill="#8d6c9f" d="M47,58H17c-6.065,0-11-4.935-11-11V17c0-6.065,4.935-11,11-11h30c6.065,0,11,4.935,11,11v30 C58,53.065,53.065,58,47,58z M17,8c-4.963,0-9,4.038-9,9v30c0,4.962,4.037,9,9,9h30c4.963,0,9-4.038,9-9V17c0-4.962-4.037-9-9-9H17 z"/><rect width="2" height="48" x="49" y="8" fill="#8d6c9f"/><rect width="6" height="2" x="51" y="19" fill="#8d6c9f"/><rect width="6.25" height="2" x="50.75" y="31" fill="#8d6c9f"/><rect width="7" height="2" x="50" y="44" fill="#8d6c9f"/><path fill="#acb7d0" d="M17.885,42.99c2.246-2.993,6.05-4.96,10.365-4.96c4.263,0,8.026,1.92,10.283,4.853L28.021,47.34 L17.885,42.99z"/><path fill="#8d6c9f" d="M28.021,48.042C19.187,48.042,12,40.855,12,32.021S19.187,16,28.021,16 c2.21,0,4.351,0.442,6.362,1.313c0.507,0.219,0.739,0.808,0.521,1.315c-0.22,0.506-0.806,0.74-1.315,0.52 C31.829,18.386,29.955,18,28.021,18C20.29,18,14,24.29,14,32.021c0,7.731,6.29,14.021,14.021,14.021 c7.731,0,14.021-6.29,14.021-14.021c0-2.448-0.64-4.857-1.851-6.967c-0.275-0.479-0.109-1.09,0.369-1.365 c0.48-0.275,1.091-0.11,1.365,0.37c1.385,2.412,2.116,5.166,2.116,7.962C44.042,40.855,36.854,48.042,28.021,48.042z"/><path fill="#8d6c9f" d="M38.885,22.648c-0.264,0-0.526-0.104-0.724-0.31c-0.45-0.472-0.938-0.916-1.45-1.322 c-0.434-0.343-0.507-0.972-0.164-1.405c0.342-0.432,0.971-0.507,1.404-0.164c0.586,0.463,1.143,0.971,1.657,1.509 c0.381,0.399,0.366,1.032-0.033,1.414C39.382,22.556,39.133,22.648,38.885,22.648z"/><circle cx="28.021" cy="29.054" r="5" fill="#acb7d0"/><path fill="#8d6c9f" d="M28.021,35.054c-3.309,0-6-2.691-6-6s2.691-6,6-6s6,2.691,6,6S31.329,35.054,28.021,35.054z M28.021,25.054c-2.206,0-4,1.794-4,4s1.794,4,4,4s4-1.794,4-4S30.227,25.054,28.021,25.054z"/><path fill="#8d6c9f" d="M18.685,43.59l-1.6-1.2c2.52-3.356,6.693-5.36,11.165-5.36c4.409,0,8.55,1.96,11.075,5.243 l-1.586,1.22c-2.149-2.794-5.696-4.462-9.489-4.462C24.404,39.03,20.828,40.735,18.685,43.59z"/><g><path fill="#8d6c9f" d="M13.386,53.565c-0.553,0-1-0.448-1-1v-2c0-0.552,0.447-1,1-1s1,0.448,1,1v2 C14.386,53.118,13.938,53.565,13.386,53.565z"/><path fill="#8d6c9f" d="M18.642,53.565c-0.553,0-1-0.448-1-1v-2c0-0.552,0.447-1,1-1s1,0.448,1,1v2 C19.642,53.118,19.194,53.565,18.642,53.565z"/><path fill="#8d6c9f" d="M23.898,53.565c-0.553,0-1-0.448-1-1v-2c0-0.552,0.447-1,1-1s1,0.448,1,1v2 C24.898,53.118,24.451,53.565,23.898,53.565z"/><path fill="#8d6c9f" d="M29.154,53.565c-0.553,0-1-0.448-1-1v-2c0-0.552,0.447-1,1-1s1,0.448,1,1v2 C30.154,53.118,29.707,53.565,29.154,53.565z"/><path fill="#8d6c9f" d="M34.41,53.565c-0.553,0-1-0.448-1-1v-2c0-0.552,0.447-1,1-1s1,0.448,1,1v2 C35.41,53.118,34.963,53.565,34.41,53.565z"/><path fill="#8d6c9f" d="M39.667,53.565c-0.553,0-1-0.448-1-1v-2c0-0.552,0.447-1,1-1s1,0.448,1,1v2 C40.667,53.118,40.22,53.565,39.667,53.565z"/><path fill="#8d6c9f" d="M44.923,53.565c-0.553,0-1-0.448-1-1v-2c0-0.552,0.447-1,1-1s1,0.448,1,1v2 C45.923,53.118,45.476,53.565,44.923,53.565z"/></g></svg>